<?xml version="1.0" standalone="no"?>
<!DOCTYPE svg PUBLIC "-//W3C//DTD SVG 20010904//EN"
 "http://www.w3.org/TR/2001/REC-SVG-20010904/DTD/svg10.dtd">
<svg version="1.0" xmlns="http://www.w3.org/2000/svg"
 width="60.000000pt" height="60.000000pt" viewBox="0 0 60.000000 60.000000"
 preserveAspectRatio="xMidYMid meet">

<g transform="translate(0.000000,60.000000) scale(0.100000,-0.100000)"
fill="#000000" stroke="none">
<path d="M370 581 c-40 -21 -52 -58 -25 -78 14 -10 23 -9 46 2 15 8 34 15 41
15 21 0 88 -73 88 -96 0 -20 -158 -184 -177 -184 -5 0 -18 7 -29 15 -28 21
-61 18 -75 -6 -23 -44 67 -97 133 -78 35 10 190 155 214 201 29 55 13 106 -53
170 -62 60 -105 70 -163 39z"/>
<path d="M186 525 c-3 -8 -1 -15 4 -15 13 0 22 18 11 24 -5 3 -11 -1 -15 -9z"/>
<path d="M90 501 c0 -13 29 -35 37 -28 7 8 -15 37 -28 37 -5 0 -9 -4 -9 -9z"/>
<path d="M226 429 c-33 -9 -189 -158 -212 -201 -30 -57 -13 -109 59 -175 57
-53 102 -63 154 -36 43 22 56 59 28 80 -14 10 -23 9 -46 -2 -15 -8 -34 -15
-41 -15 -21 0 -88 73 -88 96 0 20 158 184 177 184 5 0 18 -7 29 -15 27 -21 61
-18 74 5 9 17 6 25 -19 50 -16 17 -36 30 -44 30 -9 0 -21 2 -29 4 -7 2 -26 0
-42 -5z"/>
<path d="M71 411 c-8 -6 -9 -11 -3 -15 6 -3 14 -1 17 5 9 14 2 20 -14 10z"/>
<path d="M511 201 c-7 -5 -9 -11 -4 -14 5 -3 15 -2 22 2 7 5 9 11 4 14 -5 3
-15 2 -22 -2z"/>
<path d="M470 121 c0 -13 29 -35 37 -28 7 8 -15 37 -28 37 -5 0 -9 -4 -9 -9z"/>
<path d="M395 81 c-3 -5 -1 -12 4 -15 5 -3 11 1 15 9 6 16 -9 21 -19 6z"/>
</g>
</svg>
